<svg width="48" height="48" viewBox="0 0 48 48" fill="none" xmlns="http://www.w3.org/2000/svg">
<path d="M16.1074 35.3179C15.8936 35.3179 15.6807 35.2495 15.5029 35.1143C12.0044 32.4595 9.99756 28.4077 9.99756 23.998C9.99756 16.2783 16.2778 9.99805 23.9976 9.99805C31.7173 9.99805 37.9976 16.2783 37.9976 23.998C37.9976 28.4077 35.9907 32.46 32.4917 35.1147C32.1655 35.3628 31.7212 35.3857 31.3716 35.1748C31.021 34.9634 30.8345 34.5605 30.9004 34.1567C30.9648 33.7617 30.9976 33.3721 30.9976 32.998C30.9976 29.1382 27.8574 25.998 23.9976 25.998C20.1377 25.998 16.9976 29.1382 16.9976 32.998C16.9976 33.3711 17.0303 33.7612 17.0947 34.1577C17.1602 34.5615 16.9731 34.9644 16.6226 35.1748C16.4634 35.2705 16.2852 35.3179 16.1074 35.3179ZM23.9976 11.998C17.3809 11.998 11.9976 17.3813 11.9976 23.998C11.9976 27.0112 13.0903 29.8291 15.0527 32C15.5503 27.5049 19.3721 23.998 23.9976 23.998C28.6226 23.998 32.4443 27.5054 32.9424 32C34.9048 29.8291 35.9976 27.0112 35.9976 23.998C35.9976 17.3813 30.6143 11.998 23.9976 11.998Z" fill="#0E5F02"/>
<path d="M23.9976 37.998C20.8989 37.998 17.9604 37 15.4985 35.1113C15.2964 34.9561 15.1611 34.7295 15.1201 34.478C15.0391 33.9761 14.9976 33.478 14.9976 32.998C14.9976 28.0356 19.0352 23.998 23.9976 23.998C28.96 23.998 32.9976 28.0356 32.9976 32.998C32.9976 33.4795 32.9561 33.978 32.874 34.479C32.833 34.7305 32.6978 34.9565 32.4961 35.1113C30.0342 37 27.0957 37.998 23.9976 37.998ZM17.041 33.7651C19.0815 35.2275 21.478 35.998 23.9976 35.998C26.5166 35.998 28.9131 35.2275 30.9541 33.7651C30.9829 33.5044 30.9976 33.2476 30.9976 32.998C30.9976 29.1382 27.8574 25.998 23.9976 25.998C20.1377 25.998 16.9976 29.1382 16.9976 32.998C16.9976 33.2471 17.0122 33.5044 17.041 33.7651Z" fill="#0E5F02"/>
<path d="M24.0005 25.9995C21.2437 25.9995 19.0005 23.7563 19.0005 20.9995C19.0005 18.2427 21.2437 15.9995 24.0005 15.9995C26.7573 15.9995 29.0005 18.2427 29.0005 20.9995C29.0005 23.7563 26.7573 25.9995 24.0005 25.9995ZM24.0005 17.9995C22.3462 17.9995 21.0005 19.3452 21.0005 20.9995C21.0005 22.6538 22.3462 23.9995 24.0005 23.9995C25.6548 23.9995 27.0005 22.6538 27.0005 20.9995C27.0005 19.3452 25.6548 17.9995 24.0005 17.9995Z" fill="#0E5F02"/>
<path d="M5 10C2.24316 10 0 7.75684 0 5C0 2.24316 2.24316 0 5 0C7.75684 0 10 2.24316 10 5C10 7.75684 7.75684 10 5 10ZM5 2C3.3457 2 2 3.3457 2 5C2 6.6543 3.3457 8 5 8C6.6543 8 8 6.6543 8 5C8 3.3457 6.6543 2 5 2Z" fill="#0E5F02"/>
<path d="M43 10C40.2432 10 38 7.75684 38 5C38 2.24316 40.2432 0 43 0C45.7568 0 48 2.24316 48 5C48 7.75684 45.7568 10 43 10ZM43 2C41.3457 2 40 3.3457 40 5C40 6.6543 41.3457 8 43 8C44.6543 8 46 6.6543 46 5C46 3.3457 44.6543 2 43 2Z" fill="#0E5F02"/>
<path d="M5 48C2.24316 48 0 45.7568 0 43C0 40.2432 2.24316 38 5 38C7.75684 38 10 40.2432 10 43C10 45.7568 7.75684 48 5 48ZM5 40C3.3457 40 2 41.3457 2 43C2 44.6543 3.3457 46 5 46C6.6543 46 8 44.6543 8 43C8 41.3457 6.6543 40 5 40Z" fill="#0E5F02"/>
<path d="M43 48C40.2432 48 38 45.7568 38 43C38 40.2432 40.2432 38 43 38C45.7568 38 48 40.2432 48 43C48 45.7568 45.7568 48 43 48ZM43 40C41.3457 40 40 41.3457 40 43C40 44.6543 41.3457 46 43 46C44.6543 46 46 44.6543 46 43C46 41.3457 44.6543 40 43 40Z" fill="#0E5F02"/>
<path d="M33.1924 15.8081C32.9365 15.8081 32.6807 15.7104 32.4854 15.5151C32.0947 15.1245 32.0947 14.4917 32.4854 14.1011L39.293 7.29297C39.6836 6.90234 40.3164 6.90234 40.707 7.29297C41.0977 7.68359 41.0977 8.31641 40.707 8.70703L33.8994 15.5151C33.7041 15.7104 33.4482 15.8081 33.1924 15.8081Z" fill="#0E5F02"/>
<path d="M14.8052 15.8052C14.5493 15.8052 14.2935 15.7075 14.0981 15.5122L7.29297 8.70703C6.90234 8.31641 6.90234 7.68359 7.29297 7.29297C7.68359 6.90234 8.31641 6.90234 8.70703 7.29297L15.5122 14.0981C15.9028 14.4888 15.9028 15.1216 15.5122 15.5122C15.3169 15.7075 15.061 15.8052 14.8052 15.8052Z" fill="#0E5F02"/>
<path d="M40 41C39.7349 41 39.4707 40.8955 39.2739 40.6875L32.6436 33.6875C32.2637 33.2866 32.2808 32.6538 32.6821 32.2739C33.0835 31.895 33.7158 31.9111 34.0957 32.3125L40.7261 39.3125C41.106 39.7134 41.0889 40.3462 40.6875 40.7261C40.4941 40.9092 40.2471 41 40 41Z" fill="#0E5F02"/>
<path d="M8 41C7.74414 41 7.48828 40.9023 7.29297 40.707C6.90234 40.3164 6.90234 39.6836 7.29297 39.293L14.0981 32.4883C14.4888 32.0977 15.1216 32.0977 15.5122 32.4883C15.9028 32.8789 15.9028 33.5117 15.5122 33.9023L8.70703 40.707C8.51172 40.9023 8.25586 41 8 41Z" fill="#0E5F02"/>
</svg>
