<svg xmlns="http://www.w3.org/2000/svg" width="39" height="39" viewBox="0 0 39 39">
  <g id="Group_57423" data-name="Group 57423" transform="translate(-24 -732)">
    <circle id="Ellipse_652" data-name="Ellipse 652" cx="19.5" cy="19.5" r="19.5" transform="translate(24 732)" fill="#fff"/>
    <path id="path929" d="M7.846,288.8a6.508,6.508,0,0,0-6.524,6.475c0,6.281,6.156,11.056,6.156,11.056a.6.6,0,0,0,.74,0s6.156-4.775,6.156-11.056A6.512,6.512,0,0,0,7.846,288.8Zm0,1.178a5.312,5.312,0,0,1,5.342,5.3c0,5.138-4.688,9.2-5.338,9.748-.647-.547-5.342-4.607-5.342-9.748A5.308,5.308,0,0,1,7.846,289.975Z" transform="translate(35.676 454.203)" fill="#0e5f02"/>
  </g>
</svg>
