<svg width="150" height="150" viewBox="0 0 150 150" fill="none" xmlns="http://www.w3.org/2000/svg">
<path d="M75 0C116.412 0 150 33.5882 150 75C150 116.412 116.412 150 75 150C33.5882 150 0 116.412 0 75C0 33.5882 33.5882 0 75 0Z" fill="#008000"/>
<mask id="mask0_0_14" style="mask-type:luminance" maskUnits="userSpaceOnUse" x="87" y="47" width="22" height="22">
<path d="M87.4608 47.2433H108.889V68.6719H87.4608V47.2433Z" fill="white"/>
</mask>
<g mask="url(#mask0_0_14)">
<mask id="mask1_0_14" style="mask-type:luminance" maskUnits="userSpaceOnUse" x="88" y="47" width="21" height="21">
<path d="M108.644 57.7902C108.644 58.4487 108.583 59.096 108.454 59.7433C108.326 60.385 108.136 61.01 107.885 61.6183C107.634 62.2266 107.327 62.8013 106.959 63.3482C106.596 63.8951 106.183 64.3973 105.714 64.8605C105.251 65.3292 104.749 65.7422 104.202 66.1049C103.655 66.4732 103.08 66.7801 102.472 67.0312C101.864 67.2824 101.239 67.4721 100.597 67.6004C99.9497 67.7288 99.3024 67.7902 98.6439 67.7902C97.991 67.7902 97.3381 67.7288 96.6964 67.6004C96.0491 67.4721 95.4241 67.2824 94.8158 67.0312C94.2131 66.7801 93.6328 66.4732 93.0915 66.1049C92.5446 65.7422 92.0368 65.3292 91.5736 64.8605C91.1104 64.3973 90.6975 63.8951 90.3292 63.3482C89.9665 62.8013 89.6595 62.2266 89.4084 61.6183C89.1573 61.01 88.9676 60.385 88.8392 59.7433C88.7109 59.096 88.6439 58.4487 88.6439 57.7902C88.6439 57.1373 88.7109 56.4844 88.8392 55.8426C88.9676 55.1953 89.1573 54.5703 89.4084 53.9676C89.6595 53.3594 89.9665 52.7846 90.3292 52.2377C90.6975 51.6908 91.1104 51.183 91.5736 50.7199C92.0368 50.2567 92.5446 49.8437 93.0915 49.4754C93.6328 49.1127 94.2131 48.8058 94.8158 48.5547C95.4241 48.3036 96.0491 48.1138 96.6964 47.9855C97.3381 47.8571 97.991 47.7902 98.6439 47.7902C99.3024 47.7902 99.9497 47.8571 100.597 47.9855C101.239 48.1138 101.864 48.3036 102.472 48.5547C103.08 48.8058 103.655 49.1127 104.202 49.4754C104.749 49.8437 105.251 50.2567 105.714 50.7199C106.183 51.183 106.596 51.6908 106.959 52.2377C107.327 52.7846 107.634 53.3594 107.885 53.9676C108.136 54.5703 108.326 55.1953 108.454 55.8426C108.583 56.4844 108.644 57.1373 108.644 57.7902Z" fill="white"/>
</mask>
<g mask="url(#mask1_0_14)">
<path d="M88.6439 67.7902V47.7902H108.644V67.7902H88.6439Z" fill="white"/>
</g>
</g>
<mask id="mask2_0_14" style="mask-type:luminance" maskUnits="userSpaceOnUse" x="40" y="47" width="22" height="22">
<path d="M40.318 47.2433H61.7466V68.6719H40.318V47.2433Z" fill="white"/>
</mask>
<g mask="url(#mask2_0_14)">
<mask id="mask3_0_14" style="mask-type:luminance" maskUnits="userSpaceOnUse" x="41" y="47" width="21" height="21">
<path d="M61.3503 57.7902C61.3503 58.4487 61.2889 59.096 61.1606 59.7433C61.0322 60.385 60.8425 61.01 60.5914 61.6183C60.3402 62.2266 60.0277 62.8013 59.665 63.3482C59.3023 63.8951 58.8838 64.3973 58.4206 64.8605C57.9574 65.3292 57.4496 65.7422 56.9083 66.1049C56.3614 66.4732 55.7867 66.7801 55.1784 67.0312C54.5701 67.2824 53.9451 67.4721 53.3034 67.6004C52.6561 67.7288 52.0088 67.7902 51.3503 67.7902C50.6918 67.7902 50.0445 67.7288 49.3972 67.6004C48.7554 67.4721 48.1304 67.2824 47.5222 67.0312C46.9195 66.7801 46.3391 66.4732 45.7922 66.1049C45.251 65.7422 44.7431 65.3292 44.28 64.8605C43.8168 64.3973 43.3983 63.8951 43.0355 63.3482C42.6728 62.8013 42.3659 62.2266 42.1092 61.6183C41.8581 61.01 41.6684 60.385 41.5456 59.7433C41.4172 59.096 41.3503 58.4487 41.3503 57.7902C41.3503 57.1373 41.4172 56.4844 41.5456 55.8426C41.6684 55.1953 41.8581 54.5703 42.1092 53.9676C42.3659 53.3594 42.6728 52.7846 43.0355 52.2377C43.3983 51.6908 43.8168 51.183 44.28 50.7199C44.7431 50.2567 45.251 49.8437 45.7922 49.4754C46.3391 49.1127 46.9195 48.8058 47.5222 48.5547C48.1304 48.3036 48.7554 48.1138 49.3972 47.9855C50.0445 47.8571 50.6918 47.7902 51.3503 47.7902C52.0088 47.7902 52.6561 47.8571 53.3034 47.9855C53.9451 48.1138 54.5701 48.3036 55.1784 48.5547C55.7867 48.8058 56.3614 49.1127 56.9083 49.4754C57.4496 49.8437 57.9574 50.2567 58.4206 50.7199C58.8838 51.183 59.3023 51.6908 59.665 52.2377C60.0277 52.7846 60.3402 53.3594 60.5914 53.9676C60.8425 54.5703 61.0322 55.1953 61.1606 55.8426C61.2889 56.4844 61.3503 57.1373 61.3503 57.7902Z" fill="white"/>
</mask>
<g mask="url(#mask3_0_14)">
<path d="M41.3503 67.7902V47.7902H61.3503V67.7902H41.3503Z" fill="white"/>
</g>
</g>
<path d="M110.235 114.912C108.888 114.912 107.685 114.03 107.39 112.7C103.898 97.9469 90.2783 87.252 75.021 87.252C59.7582 87.252 46.1381 97.9469 42.6467 112.7C42.2959 114.229 40.7089 115.192 39.1275 114.826C37.5405 114.487 36.5438 112.953 36.9225 111.419C41.0319 94.1469 57.0576 81.5789 75.021 81.5789C92.9789 81.5789 109.005 94.1469 113.086 111.451C113.437 112.98 112.468 114.487 110.881 114.853C110.675 114.88 110.441 114.912 110.235 114.912Z" fill="white"/>
</svg>
