<svg id="Page-1" xmlns="http://www.w3.org/2000/svg" width="36.637" height="36.637" viewBox="0 0 36.637 36.637">
  <g id="Dribbble-Light-Preview">
    <g id="icons">
      <path id="ambulance-_663_" data-name="ambulance-[#663]" d="M229.646,5139.15h7.327v-7.327h-7.327Zm7.327,7.327h-1.427a5.382,5.382,0,0,0-5.9-1.5v-2.162h7.327Zm-5.5,5.5a1.832,1.832,0,1,1,1.832-1.832,1.837,1.837,0,0,1-1.832,1.832Zm-5.5-5.5h-4.609a7.3,7.3,0,0,0-13.709-1.227v-22.587h18.318Zm-8.524,3.664a3.632,3.632,0,0,1-6.309,0,3.55,3.55,0,0,1,0-3.664,3.633,3.633,0,0,1,6.309,0,3.55,3.55,0,0,1,0,3.664Zm12.187-21.982V5119H204v31.142h3.235a7.294,7.294,0,0,0,14.138,0h4.609a5.5,5.5,0,0,0,10.991,0h3.664v-21.982Z" transform="translate(-204 -5119)" fill="#0e5f02" fill-rule="evenodd"/>
    </g>
  </g>
</svg>
