<svg width="52" height="52" viewBox="0 0 52 52" fill="none" xmlns="http://www.w3.org/2000/svg">
<path d="M6 6C6.55228 6 7 5.55228 7 5C7 4.44772 6.55228 4 6 4C5.44772 4 5 4.44772 5 5C5 5.55228 5.44772 6 6 6Z" fill="#0E5F02"/>
<path d="M11 6C11.5523 6 12 5.55228 12 5C12 4.44772 11.5523 4 11 4C10.4477 4 10 4.44772 10 5C10 5.55228 10.4477 6 11 6Z" fill="#0E5F02"/>
<path d="M16 6C16.5523 6 17 5.55228 17 5C17 4.44772 16.5523 4 16 4C15.4477 4 15 4.44772 15 5C15 5.55228 15.4477 6 16 6Z" fill="#0E5F02"/>
<path d="M47 10H1C0.734784 10 0.48043 9.89464 0.292893 9.70711C0.105357 9.51957 0 9.26522 0 9C0 8.73478 0.105357 8.48043 0.292893 8.29289C0.48043 8.10536 0.734784 8 1 8H47C47.2652 8 47.5196 8.10536 47.7071 8.29289C47.8946 8.48043 48 8.73478 48 9C48 9.26522 47.8946 9.51957 47.7071 9.70711C47.5196 9.89464 47.2652 10 47 10Z" fill="#0E5F02"/>
<path d="M31 38C30.7348 38 30.4804 37.8946 30.2929 37.7071C30.1054 37.5196 30 37.2652 30 37V33C30 32.7348 30.1054 32.4804 30.2929 32.2929C30.4804 32.1054 30.7348 32 31 32C31.2652 32 31.5196 32.1054 31.7071 32.2929C31.8946 32.4804 32 32.7348 32 33V37C32 37.2652 31.8946 37.5196 31.7071 37.7071C31.5196 37.8946 31.2652 38 31 38Z" fill="#0E5F02"/>
<path d="M49.11 47.0001C49.2773 47.1653 49.381 47.3842 49.4029 47.6183C49.4249 47.8523 49.3636 48.0867 49.23 48.2801C48.2202 49.661 46.9744 50.8527 45.55 51.8001C45.3926 51.9236 45.1999 51.9936 45 52.0001C44.7863 51.9984 44.5788 51.9284 44.4079 51.8003C44.2369 51.6721 44.1115 51.4926 44.05 51.2879C43.9885 51.0833 43.9942 50.8644 44.0661 50.6632C44.1381 50.4621 44.2726 50.2892 44.45 50.1701C45.6639 49.3578 46.7294 48.343 47.6 47.1701C47.681 47.0506 47.7869 46.95 47.9105 46.8753C48.0341 46.8007 48.1724 46.7536 48.3158 46.7375C48.4593 46.7213 48.6046 46.7364 48.7417 46.7818C48.8788 46.8271 49.0044 46.9016 49.11 47.0001Z" fill="#0E5F02"/>
<path d="M52 34.6399V39.7899C52.0025 41.3327 51.756 42.8657 51.27 44.3299C51.2133 44.4889 51.1172 44.6309 50.9908 44.7428C50.8644 44.8546 50.7117 44.9327 50.547 44.9696C50.3823 45.0066 50.2109 45.0012 50.0488 44.954C49.8867 44.9069 49.7392 44.8194 49.62 44.6999C49.4949 44.5695 49.4075 44.4077 49.367 44.2317C49.3265 44.0556 49.3344 43.8718 49.39 43.6999C49.794 42.4359 49.9998 41.1169 50 39.7899V34.6399C50.0171 34.2497 49.8899 33.8668 49.6428 33.5643C49.3956 33.2619 49.0458 33.0609 48.66 32.9999C48.4491 32.9756 48.2355 32.997 48.0337 33.0626C47.8318 33.1282 47.6464 33.2364 47.49 33.3799C47.3348 33.5221 47.211 33.6952 47.1266 33.8881C47.0422 34.081 46.9991 34.2894 47 34.4999C47 34.7651 46.8946 35.0195 46.7071 35.207C46.5196 35.3946 46.2652 35.4999 46 35.4999C45.7348 35.4999 45.4804 35.3946 45.2929 35.207C45.1054 35.0195 45 34.7651 45 34.4999V32.6399C45.0171 32.2497 44.8899 31.8668 44.6428 31.5643C44.3956 31.2619 44.0458 31.0609 43.66 30.9999C43.4491 30.9756 43.2355 30.997 43.0337 31.0626C42.8318 31.1282 42.6464 31.2364 42.49 31.3799C42.3348 31.5221 42.211 31.6952 42.1266 31.8881C42.0422 32.081 41.9991 32.2894 42 32.4999C42 32.7651 41.8946 33.0195 41.7071 33.207C41.5196 33.3946 41.2652 33.4999 41 33.4999C40.7348 33.4999 40.4804 33.3946 40.2929 33.207C40.1054 33.0195 40 32.7651 40 32.4999V31.6399C40.0171 31.2497 39.8899 30.8668 39.6428 30.5643C39.3956 30.2619 39.0458 30.0609 38.66 29.9999C38.4491 29.9756 38.2355 29.997 38.0337 30.0626C37.8318 30.1282 37.6464 30.2364 37.49 30.3799C37.3348 30.5221 37.211 30.6952 37.1266 30.8881C37.0422 31.081 36.9991 31.2894 37 31.4999C37 31.7651 36.8946 32.0195 36.7071 32.207C36.5196 32.3946 36.2652 32.4999 36 32.4999C35.7348 32.4999 35.4804 32.3946 35.2929 32.207C35.1054 32.0195 35 31.7651 35 31.4999V22.4999C35.0012 22.2887 34.9578 22.0796 34.8726 21.8864C34.7874 21.6931 34.6624 21.52 34.5057 21.3784C34.349 21.2368 34.1642 21.1299 33.9633 21.0647C33.7624 20.9994 33.55 20.9774 33.34 20.9999C32.9542 21.0609 32.6044 21.2619 32.3572 21.5643C32.1101 21.8668 31.9829 22.2497 32 22.6399V32.9999C32 33.2651 31.8946 33.5195 31.7071 33.707C31.5196 33.8946 31.2652 33.9999 31 33.9999C30.7348 33.9999 30.4804 33.8946 30.2929 33.707C30.1054 33.5195 30 33.2651 30 32.9999C30.0002 32.5974 29.9194 32.1989 29.7625 31.8283C29.6055 31.4576 29.3755 31.1224 29.0863 30.8424C28.797 30.5625 28.4544 30.3437 28.0788 30.1989C27.7032 30.0542 27.3023 29.9865 26.9 29.9999C26.6525 30.0248 26.4231 30.141 26.2567 30.3259C26.0903 30.5108 25.9988 30.7511 26 30.9999V39.7899C25.999 41.8433 26.505 43.8652 27.4732 45.6759C28.4414 47.4867 29.8418 49.0304 31.55 50.1699C31.744 50.3262 31.8727 50.5493 31.9109 50.7955C31.9491 51.0418 31.8939 51.2934 31.7563 51.5011C31.6187 51.7088 31.4084 51.8576 31.1668 51.9184C30.9252 51.9793 30.6696 51.9477 30.45 51.8299C28.4698 50.5156 26.8449 48.7325 25.7197 46.639C24.5945 44.5456 24.0037 42.2066 24 39.8299V30.9999C23.9989 30.2312 24.2929 29.4914 24.8214 28.9332C25.3498 28.375 26.0724 28.0409 26.84 27.9999C27.9764 27.9643 29.091 28.317 30 28.9999V22.6399C29.9851 21.7535 30.2969 20.8925 30.876 20.2212C31.4551 19.5499 32.261 19.1152 33.14 18.9999C33.6293 18.9477 34.124 18.9996 34.5918 19.1521C35.0596 19.3046 35.4899 19.5543 35.8544 19.8848C36.2189 20.2153 36.5094 20.6192 36.7069 21.0699C36.9043 21.5205 37.0042 22.0079 37 22.4999V28.3399C37.5785 28.0624 38.2208 27.945 38.86 27.9999C39.387 28.0614 39.8931 28.2419 40.34 28.5277C40.787 28.8136 41.1631 29.1973 41.44 29.6499C41.8857 29.3243 42.4026 29.1097 42.9479 29.024C43.4931 28.9382 44.051 28.9838 44.5751 29.1568C45.0992 29.3299 45.5745 29.6255 45.9614 30.0191C46.3484 30.4127 46.6359 30.8929 46.8 31.4199C47.4289 31.0763 48.1467 30.93 48.86 30.9999C49.739 31.1152 50.5449 31.5499 51.124 32.2212C51.7031 32.8925 52.0149 33.7535 52 34.6399Z" fill="#0E5F02"/>
<path d="M1 22C0.734784 22 0.48043 21.8946 0.292893 21.7071C0.105357 21.5196 0 21.2652 0 21V4C0 2.93913 0.421427 1.92172 1.17157 1.17157C1.92172 0.421427 2.93913 0 4 0H23C23.2652 0 23.5196 0.105357 23.7071 0.292893C23.8946 0.48043 24 0.734784 24 1C24 1.26522 23.8946 1.51957 23.7071 1.70711C23.5196 1.89464 23.2652 2 23 2H4C3.46957 2 2.96086 2.21071 2.58579 2.58579C2.21071 2.96086 2 3.46957 2 4V21C2 21.2652 1.89464 21.5196 1.70711 21.7071C1.51957 21.8946 1.26522 22 1 22Z" fill="#0E5F02"/>
<path d="M26 37C26 37.2652 25.8946 37.5196 25.7071 37.7071C25.5196 37.8946 25.2652 38 25 38H4C2.93913 38 1.92172 37.5786 1.17157 36.8284C0.421427 36.0783 0 35.0609 0 34V25C0 24.7348 0.105357 24.4804 0.292893 24.2929C0.48043 24.1054 0.734784 24 1 24C1.26522 24 1.51957 24.1054 1.70711 24.2929C1.89464 24.4804 2 24.7348 2 25V34C2 34.5304 2.21071 35.0391 2.58579 35.4142C2.96086 35.7893 3.46957 36 4 36H25C25.2652 36 25.5196 36.1054 25.7071 36.2929C25.8946 36.4804 26 36.7348 26 37Z" fill="#0E5F02"/>
<path d="M28 1C28 0.447715 27.5523 0 27 0C26.4477 0 26 0.447715 26 1C26 1.55228 26.4477 2 27 2C27.5523 2 28 1.55228 28 1Z" fill="#0E5F02"/>
<path d="M48 4V32.5C48 32.7652 47.8946 33.0196 47.7071 33.2071C47.5196 33.3946 47.2652 33.5 47 33.5C46.7348 33.5 46.4804 33.3946 46.2929 33.2071C46.1054 33.0196 46 32.7652 46 32.5V4C46 3.46957 45.7893 2.96086 45.4142 2.58579C45.0391 2.21071 44.5304 2 44 2H31C30.7348 2 30.4804 1.89464 30.2929 1.70711C30.1054 1.51957 30 1.26522 30 1C30 0.734784 30.1054 0.48043 30.2929 0.292893C30.4804 0.105357 30.7348 0 31 0H44C45.0609 0 46.0783 0.421427 46.8284 1.17157C47.5786 1.92172 48 2.93913 48 4Z" fill="#0E5F02"/>
<path d="M39.31 22.9999H36C35.7348 22.9999 35.4804 22.8946 35.2929 22.7071C35.1054 22.5195 35 22.2652 35 21.9999C35 21.7347 35.1054 21.4804 35.2929 21.2928C35.4804 21.1053 35.7348 20.9999 36 20.9999H39.36C39.8094 21.0016 40.2436 20.8379 40.58 20.5399C40.7212 20.4131 40.8355 20.2593 40.9163 20.0875C40.997 19.9158 41.0425 19.7296 41.05 19.5399C41.0427 19.3226 40.9912 19.109 40.8985 18.9123C40.8059 18.7155 40.6742 18.5397 40.5113 18.3956C40.3485 18.2515 40.158 18.1421 39.9514 18.074C39.7449 18.006 39.5266 17.9808 39.31 17.9999H30.69C30.2406 17.9983 29.8064 18.162 29.47 18.4599C29.3288 18.5868 29.2145 18.7406 29.1337 18.9124C29.053 19.0841 29.0075 19.2703 29 19.4599C29.0076 19.6728 29.0577 19.8819 29.1472 20.0751C29.2367 20.2683 29.3639 20.4417 29.5213 20.5852C29.6787 20.7286 29.8631 20.8392 30.0638 20.9104C30.2645 20.9816 30.4774 21.0121 30.69 20.9999H31.08C31.3452 20.9999 31.5996 21.1053 31.7871 21.2928C31.9746 21.4804 32.08 21.7347 32.08 21.9999C32.08 22.2652 31.9746 22.5195 31.7871 22.7071C31.5996 22.8946 31.3452 22.9999 31.08 22.9999H30.69C29.7376 23.0215 28.8152 22.6657 28.124 22.0101C27.4328 21.3545 27.0288 20.4522 27 19.4999C27.0054 19.0297 27.1066 18.5654 27.2975 18.1356C27.4883 17.7058 27.7648 17.3193 28.11 16.9999C28.8143 16.3551 29.7351 15.9982 30.69 15.9999H39.31C40.2624 15.9784 41.1848 16.3342 41.876 16.9898C42.5672 17.6454 42.9712 18.5477 43 19.4999C42.9946 19.9702 42.8934 20.4345 42.7025 20.8643C42.5117 21.2941 42.2352 21.6806 41.89 21.9999C41.1857 22.6448 40.2649 23.0017 39.31 22.9999Z" fill="#0E5F02"/>
<path d="M23 25H6C5.73478 25 5.48043 24.8946 5.29289 24.7071C5.10536 24.5196 5 24.2652 5 24V14C5 13.7348 5.10536 13.4804 5.29289 13.2929C5.48043 13.1054 5.73478 13 6 13H23C23.2652 13 23.5196 13.1054 23.7071 13.2929C23.8946 13.4804 24 13.7348 24 14V24C24 24.2652 23.8946 24.5196 23.7071 24.7071C23.5196 24.8946 23.2652 25 23 25ZM7 23H22V15H7V23Z" fill="#0E5F02"/>
<path d="M22 29H7C6.73478 29 6.48043 28.8946 6.29289 28.7071C6.10536 28.5196 6 28.2652 6 28C6 27.7348 6.10536 27.4804 6.29289 27.2929C6.48043 27.1054 6.73478 27 7 27H22C22.2652 27 22.5196 27.1054 22.7071 27.2929C22.8946 27.4804 23 27.7348 23 28C23 28.2652 22.8946 28.5196 22.7071 28.7071C22.5196 28.8946 22.2652 29 22 29Z" fill="#0E5F02"/>
<path d="M16 33H7C6.73478 33 6.48043 32.8946 6.29289 32.7071C6.10536 32.5196 6 32.2652 6 32C6 31.7348 6.10536 31.4804 6.29289 31.2929C6.48043 31.1054 6.73478 31 7 31H16C16.2652 31 16.5196 31.1054 16.7071 31.2929C16.8946 31.4804 17 31.7348 17 32C17 32.2652 16.8946 32.5196 16.7071 32.7071C16.5196 32.8946 16.2652 33 16 33Z" fill="#0E5F02"/>
</svg>
